<svg>
	<circle cx="318.500000" cy="789.000000" r="30.000000" fill="yellow" stroke="black" />
	<circle cx="344.000000" cy="789.000000" r="30.000000" fill="blue" stroke="black" />
	<rect x="275.034515" y="654.939697" width="30.000000" height="22.500000" fill="yellow" stroke="black" />
	<circle cx="277.700012" cy="680.299988" r="30.000000" fill="blue" stroke="black" />
	<rect x="381.399994" y="740.299988" width="30.000000" height="30.000000" fill="yellow" stroke="black" />
	<rect x="406.899994" y="765.799988" width="30.000000" height="30.000000" fill="blue" stroke="black" />
	<circle cx="265.200012" cy="632.799988" r="30.000000" fill="yellow" stroke="black" />
	<circle cx="290.700012" cy="632.799988" r="30.000000" fill="blue" stroke="black" />
	<rect x="908.016357" y="61.750000" width="30.000000" height="22.500000" fill="yellow" stroke="black" />
	<circle cx="930.099976" cy="74.500000" r="30.000000" fill="blue" stroke="black" />
	<rect x="119.699997" y="872.700012" width="30.000000" height="30.000000" fill="yellow" stroke="black" />
	<rect x="145.199997" y="898.200012" width="30.000000" height="30.000000" fill="blue" stroke="black" />
	<circle cx="268.600006" cy="827.500000" r="30.000000" fill="yellow" stroke="black" />
	<circle cx="294.100006" cy="827.500000" r="30.000000" fill="blue" stroke="black" />
	<rect x="962.459412" y="255.359543" width="30.000000" height="22.500000" fill="yellow" stroke="black" />
	<circle cx="948.200012" cy="276.500000" r="30.000000" fill="blue" stroke="black" />
	<rect x="815.000000" y="276.000000" width="30.000000" height="30.000000" fill="yellow" stroke="black" />
	<rect x="840.500000" y="301.500000" width="30.000000" height="30.000000" fill="blue" stroke="black" />
	<circle cx="1012.900024" cy="683.299988" r="30.000000" fill="yellow" stroke="black" />
	<circle cx="1038.400024" cy="683.299988" r="30.000000" fill="blue" stroke="black" />
	<circle cx="121.300003" cy="373.500000" r="20.000000" fill="yellow" stroke="black" />
	<circle cx="158.300003" cy="373.500000" r="20.000000" fill="blue" stroke="black" />
	<rect x="3.643591" y="379.684814" width="20.000000" height="15.000000" fill="yellow" stroke="black" />
	<circle cx="22.700001" cy="411.399994" r="20.000000" fill="blue" stroke="black" />
	<rect x="227.699997" y="556.099976" width="20.000000" height="20.000000" fill="yellow" stroke="black" />
	<rect x="264.700012" y="593.099976" width="20.000000" height="20.000000" fill="blue" stroke="black" />
	<circle cx="678.000000" cy="207.899994" r="20.000000" fill="yellow" stroke="black" />
	<circle cx="715.000000" cy="207.899994" r="20.000000" fill="blue" stroke="black" />
	<rect x="351.500000" y="126.242943" width="20.000000" height="15.000000" fill="yellow" stroke="black" />
	<circle cx="333.000000" cy="94.199997" r="20.000000" fill="blue" stroke="black" />
	<rect x="633.500000" y="172.000000" width="20.000000" height="20.000000" fill="yellow" stroke="black" />
	<rect x="670.500000" y="209.000000" width="20.000000" height="20.000000" fill="blue" stroke="black" />
	<circle cx="1184.400024" cy="161.100006" r="20.000000" fill="yellow" stroke="black" />
	<circle cx="1221.400024" cy="161.100006" r="20.000000" fill="blue" stroke="black" />
	<rect x="469.223175" y="610.348328" width="20.000000" height="15.000000" fill="yellow" stroke="black" />
	<circle cx="460.899994" cy="646.400024" r="20.000000" fill="blue" stroke="black" />
	<rect x="993.200012" y="58.799999" width="20.000000" height="20.000000" fill="yellow" stroke="black" />
	<rect x="1030.199951" y="95.800003" width="20.000000" height="20.000000" fill="blue" stroke="black" />
	<circle cx="1175.199951" cy="827.700012" r="20.000000" fill="yellow" stroke="black" />
	<circle cx="1212.199951" cy="827.700012" r="20.000000" fill="blue" stroke="black" />
	<rect x="459.202698" y="503.732452" width="20.000000" height="15.000000" fill="yellow" stroke="black" />
	<circle cx="496.000000" cy="507.600006" r="20.000000" fill="blue" stroke="black" />
	<rect x="357.899994" y="756.000000" width="20.000000" height="20.000000" fill="yellow" stroke="black" />
	<rect x="394.899994" y="793.000000" width="20.000000" height="20.000000" fill="blue" stroke="black" />
	<circle cx="209.199997" cy="257.899994" r="20.000000" fill="yellow" stroke="black" />
	<circle cx="246.199997" cy="257.899994" r="20.000000" fill="blue" stroke="black" />
	<rect x="595.275024" y="530.837891" width="20.000000" height="15.000000" fill="yellow" stroke="black" />
	<circle cx="601.700012" cy="494.399994" r="20.000000" fill="blue" stroke="black" />
	<rect x="1087.099976" y="485.500000" width="20.000000" height="20.000000" fill="yellow" stroke="black" />
	<rect x="1124.099976" y="522.500000" width="20.000000" height="20.000000" fill="blue" stroke="black" />
	<circle cx="864.400024" cy="660.900024" r="20.000000" fill="yellow" stroke="black" />
	<circle cx="901.400024" cy="660.900024" r="20.000000" fill="blue" stroke="black" />
	<rect x="550.260071" y="136.350601" width="20.000000" height="15.000000" fill="yellow" stroke="black" />
	<circle cx="586.900024" cy="141.500000" r="20.000000" fill="blue" stroke="black" />
	<rect x="779.400024" y="309.500000" width="20.000000" height="20.000000" fill="yellow" stroke="black" />
	<rect x="816.400024" y="346.500000" width="20.000000" height="20.000000" fill="blue" stroke="black" />
	<circle cx="951.200012" cy="530.099976" r="20.000000" fill="yellow" stroke="black" />
	<circle cx="988.200012" cy="530.099976" r="20.000000" fill="blue" stroke="black" />
	<rect x="247.405640" y="382.954254" width="20.000000" height="15.000000" fill="yellow" stroke="black" />
	<circle cx="284.399994" cy="383.600006" r="20.000000" fill="blue" stroke="black" />
	<rect x="364.200012" y="335.700012" width="20.000000" height="20.000000" fill="yellow" stroke="black" />
	<rect x="401.200012" y="372.700012" width="20.000000" height="20.000000" fill="blue" stroke="black" />
	<circle cx="535.500000" cy="48.299999" r="20.000000" fill="yellow" stroke="black" />
	<circle cx="572.500000" cy="48.299999" r="20.000000" fill="blue" stroke="black" />
	<rect x="134.875244" y="252.240799" width="20.000000" height="15.000000" fill="yellow" stroke="black" />
	<circle cx="138.100006" cy="289.100006" r="20.000000" fill="blue" stroke="black" />
	<rect x="315.299988" y="552.500000" width="20.000000" height="20.000000" fill="yellow" stroke="black" />
	<rect x="352.299988" y="589.500000" width="20.000000" height="20.000000" fill="blue" stroke="black" />
	<circle cx="320.600006" cy="267.700012" r="20.000000" fill="yellow" stroke="black" />
	<circle cx="357.600006" cy="267.700012" r="20.000000" fill="blue" stroke="black" />
	<rect x="165.251648" y="356.830811" width="20.000000" height="15.000000" fill="yellow" stroke="black" />
	<circle cx="145.100006" cy="325.799988" r="20.000000" fill="blue" stroke="black" />
	<rect x="1187.900024" y="600.500000" width="20.000000" height="20.000000" fill="yellow" stroke="black" />
	<rect x="1224.900024" y="637.500000" width="20.000000" height="20.000000" fill="blue" stroke="black" />
	<circle cx="525.000000" cy="708.700012" r="20.000000" fill="yellow" stroke="black" />
	<circle cx="562.000000" cy="708.700012" r="20.000000" fill="blue" stroke="black" />
	<rect x="979.890808" y="726.924194" width="20.000000" height="15.000000" fill="yellow" stroke="black" />
	<circle cx="984.400024" cy="690.200012" r="20.000000" fill="blue" stroke="black" />
	<rect x="521.900024" y="483.700012" width="20.000000" height="20.000000" fill="yellow" stroke="black" />
	<rect x="558.900024" y="520.700012" width="20.000000" height="20.000000" fill="blue" stroke="black" /></svg>